# xmcd CD database file
#
# Track frame offsets:
#	150
#	17243
#	33186
#	53274
#	72388
#	90654
#	110983
#	131543
#	154831
#	177630
#	200285
#	219021
#	235662
#	256180
#
# Disc length: 3638 seconds
#
# Revision: 0
# Processed by: cddbd v1.5PL3 Copyright (c) Steve Scherf et al.
# Submitted via: CDex 1.51
#
DISCID=b70e340e
DTITLE=Missa Johnouchi - Kataribe
DYEAR=2004
DGENRE=New Age
TTITLE0=Kataribe
TTITLE1=Miyako
TTITLE2=Streets OF Kyoto
TTITLE3=Asian Wind
TTITLE4=Funauta
TTITLE5=Shigure
TTITLE6=Shuufu
TTITLE7=Springtime
TTITLE8=Snow Forest
TTITLE9=Hatsuyuki
TTITLE10=DEJA VU
TTITLE11=Sekka
TTITLE12=Horizon
TTITLE13=Snow Dance
EXTD=YEAR: 2004
EXTT0=
EXTT1=
EXTT2=
EXTT3=
EXTT4=
EXTT5=
EXTT6=
EXTT7=
EXTT8=
EXTT9=
EXTT10=
EXTT11=
EXTT12=
EXTT13=
PLAYORDER=
